# xmcd CD database file
#
# Track frame offsets:
#	150
#	24116
#	47820
#	71905
#	96805
#	118858
#	139119
#	161335
#	183470
#	205793
#	230233
#	251825
#	277494
#	301847
#
# Disc length: 4427 seconds
#
# Revision: 3
# Processed by: cddbd v1.5.1PL0 Copyright (c) Steve Scherf et al.
# Submitted via: CDex 1.51
#
DISCID=d011490e
DTITLE=Michel Pépé - Floraisons Sacrées (Best of 1995-2001)
DYEAR=2001
DGENRE=New Age
TTITLE0=fleur de lys
TTITLE1=les lumières du jour
TTITLE2=himalaya
TTITLE3=magnificat
TTITLE4=amor celtica
TTITLE5=quinta essencia
TTITLE6=adagio
TTITLE7=akchimia d'amore
TTITLE8=la route de la soie
TTITLE9=fleur d'amour
TTITLE10=les ailes de lumière
TTITLE11=officium
TTITLE12=eurasia
TTITLE13=anima mea
EXTD=YEAR: 2001
EXTT0=
EXTT1=
EXTT2=
EXTT3=
EXTT4=
EXTT5=
EXTT6=
EXTT7=
EXTT8=
EXTT9=
EXTT10=
EXTT11=
EXTT12=
EXTT13=
PLAYORDER=
